# xmcd
#
# Track frame offsets:
#	150
#	18647
#	29466
#	44344
#	60979
#	80207
#	92433
#	110512
#	123483
#	139968
#
# Disc length: 2061 seconds
#
# Revision: 0
# Processed by: cddbd v1.5.2PL0 Copyright (c) Steve Scherf et al.
# Submitted via: EasyCDDAExtractor 10.2.0.1
#
DISCID=86080b0a
DTITLE=Marvin Morrow - I'll Live On The Mountain
DYEAR=2001
DGENRE=Gospel
TTITLE0=I'll Live On The Mountain
TTITLE1=Jesus Is Coming Again
TTITLE2=So Much To Thank Him For
TTITLE3=I Got Saved
TTITLE4=Jake The Jesus Man
TTITLE5=I Feel Like Going Home
TTITLE6=Visions Of Heaven
TTITLE7=Mama's Old Songbook
TTITLE8=The Blood And The Cross
TTITLE9=Don't Overlook Salvation
EXTD=
EXTT0=
EXTT1=
EXTT2=
EXTT3=
EXTT4=
EXTT5=
EXTT6=
EXTT7=
EXTT8=
EXTT9=
PLAYORDER=
